<svg width="16" height="17" viewBox="0 0 16 17" fill="none" xmlns="http://www.w3.org/2000/svg">
<g clip-path="url(#clip0_1_9)">
<path d="M7.7093 0.5C3.48175 0.5 0.0423584 4.0888 0.0423584 8.5C0.0423584 12.9112 3.48175 16.5 7.7093 16.5C11.9368 16.5 15.3762 12.9112 15.3762 8.5C15.3762 4.0888 11.9368 0.5 7.7093 0.5ZM7.7093 14.3182C4.63472 14.3182 2.13334 11.7081 2.13334 8.5C2.13334 5.29185 4.63472 2.68182 7.7093 2.68182C10.7839 2.68182 13.2853 5.29185 13.2853 8.5C13.2853 11.7081 10.7839 14.3182 7.7093 14.3182ZM9.78063 9.82829L10.911 10.9239L10.3414 11.4441C9.62798 12.0954 8.71659 12.4543 7.7753 12.4543C5.66034 12.4543 3.93967 10.6959 3.93967 8.53462C3.93967 6.37833 5.66034 4.624 7.7753 4.624C8.71736 4.624 9.62568 4.97949 10.3327 5.62502L10.8815 6.12611L9.79819 7.25709L9.31719 6.81367C8.90339 6.43236 8.3559 6.22233 7.7753 6.22233C6.50496 6.22233 5.47146 7.25964 5.47146 8.53454C5.47146 9.81454 6.50496 10.8559 7.7753 10.8559C8.34949 10.8559 8.89705 10.6425 9.31719 10.2553L9.78063 9.82829Z" fill="white"/>
</g>
<defs>
<clipPath id="clip0_1_9">
<rect width="15.3339" height="16" fill="white" transform="translate(0.0423584 0.5)"/>
</clipPath>
</defs>
</svg>
